<svg width="1440" height="951" viewBox="0 0 1440 951" fill="none" xmlns="http://www.w3.org/2000/svg">
<g filter="url(#filter0_d_211_2)">
<path d="M1440 951L0 951L1.74845e-05 714.25C1.74845e-05 714.25 108.736 749.763 180 749.763C251.264 749.763 288.736 714.25 360 714.25C431.264 714.25 468.736 749.763 540 749.763C611.264 749.763 648.736 714.25 720 714.25C791.264 714.25 828.736 749.763 900 749.763C971.264 749.763 1008.74 714.25 1080 714.25C1151.26 714.25 1188.74 749.763 1260 749.763C1331.26 749.763 1440 714.25 1440 714.25V951Z" fill="#F74009"/>
<path d="M1440 477.5C1440 477.5 1331.26 513.013 1260 513.013C1188.74 513.013 1151.26 477.5 1080 477.5C1008.74 477.5 971.264 513.012 900 513.012C828.736 513.012 791.264 477.5 720 477.5C648.736 477.5 611.264 513.012 540 513.012C468.736 513.012 431.264 477.5 360 477.5C288.736 477.5 251.264 513.012 180 513.012C108.736 513.012 0 477.5 0 477.5L1.74845e-05 240.75C1.74845e-05 240.75 108.736 276.263 180 276.263C251.264 276.263 288.736 240.75 360 240.75C431.264 240.75 468.736 276.263 540 276.263C611.264 276.263 648.736 240.75 720 240.75C791.264 240.75 828.736 276.263 900 276.263C971.264 276.263 1008.74 240.75 1080 240.75C1151.26 240.75 1188.74 276.263 1260 276.263C1331.26 276.263 1440 240.75 1440 240.75V477.5Z" fill="#942807"/>
<path d="M1440 714.25C1440 714.25 1331.26 749.763 1260 749.763C1188.74 749.763 1151.26 714.25 1080 714.25C1008.74 714.25 971.264 749.763 900 749.763C828.736 749.763 791.264 714.25 720 714.25C648.736 714.25 611.264 749.763 540 749.763C468.736 749.763 431.264 714.25 360 714.25C288.736 714.25 251.264 749.763 180 749.763C108.736 749.763 1.74845e-05 714.25 1.74845e-05 714.25L0 477.5C0 477.5 108.736 513.012 180 513.012C251.264 513.012 288.736 477.5 360 477.5C431.264 477.5 468.736 513.012 540 513.012C611.264 513.012 648.736 477.5 720 477.5C791.264 477.5 828.736 513.012 900 513.012C971.264 513.012 1008.74 477.5 1080 477.5C1151.26 477.5 1188.74 513.013 1260 513.013C1331.26 513.013 1440 477.5 1440 477.5V714.25Z" fill="#BB340B"/>
<path d="M1440 240.75C1440 240.75 1331.26 276.263 1260 276.263C1188.74 276.263 1151.26 240.75 1080 240.75C1008.74 240.75 971.264 276.263 900 276.263C828.736 276.263 791.264 240.75 720 240.75C648.736 240.75 611.264 276.263 540 276.263C468.736 276.263 431.264 240.75 360 240.75C288.736 240.75 251.264 276.263 180 276.263C108.736 276.263 1.74845e-05 240.75 1.74845e-05 240.75V4L1440 4.00015V240.75Z" fill="#6B1C04"/>
<path d="M1440 951L0 951L5.04273e-05 932.706C23.0357 921.962 39 898.595 39 871.5C39 845.267 60.2665 824 86.5001 824C112.734 824 134 845.267 134 871.5C134 908.78 164.221 939 201.5 939C238.779 939 269 908.78 269 871.5C269 845.267 290.267 824 316.5 824C342.734 824 364 845.267 364 871.5C364 908.78 394.221 939 431.5 939C468.779 939 499 908.78 499 871.5C499 845.267 520.267 824 546.5 824C572.734 824 594 845.267 594 871.5C594 908.78 624.221 939 661.5 939C698.779 939 729 908.78 729 871.5C729 845.267 750.267 824 776.5 824C802.734 824 824 845.267 824 871.5C824 908.78 854.221 939 891.5 939C928.779 939 959 908.78 959 871.5C959 845.267 980.267 824 1006.5 824C1032.73 824 1054 845.267 1054 871.5C1054 908.78 1084.22 939 1121.5 939C1158.78 939 1189 908.78 1189 871.5C1189 871.334 1189 871.167 1189 871L1189 871C1189 844.767 1210.27 823.5 1236.5 823.5C1262.73 823.5 1284 844.767 1284 871L1284 871L1284 871.062L1284 871.251L1284 871.5C1284 908.78 1314.22 939 1351.5 939C1351.67 939 1351.83 939 1352 938.999C1389.05 938.73 1419 908.613 1419 871.5C1419 871.334 1419 871.167 1419 871H1419C1419 870.834 1419 870.667 1419 870.5C1419 854.08 1427.33 839.605 1440 831.074V951Z" fill="#18161B"/>
</g>
<defs>
<filter id="filter0_d_211_2" x="-8" y="-3.8185e-06" width="1456" height="963" filterUnits="userSpaceOnUse" color-interpolation-filters="sRGB">
<feFlood flood-opacity="0" result="BackgroundImageFix"/>
<feColorMatrix in="SourceAlpha" type="matrix" values="0 0 0 0 0 0 0 0 0 0 0 0 0 0 0 0 0 0 127 0" result="hardAlpha"/>
<feOffset dy="4"/>
<feGaussianBlur stdDeviation="4"/>
<feComposite in2="hardAlpha" operator="out"/>
<feColorMatrix type="matrix" values="0 0 0 0 0 0 0 0 0 0 0 0 0 0 0 0 0 0 0.25 0"/>
<feBlend mode="normal" in2="BackgroundImageFix" result="effect1_dropShadow_211_2"/>
<feBlend mode="normal" in="SourceGraphic" in2="effect1_dropShadow_211_2" result="shape"/>
</filter>
</defs>
</svg>
