<svg width="1440" height="626" viewBox="0 0 1440 626" fill="none" xmlns="http://www.w3.org/2000/svg">
<g filter="url(#filter0_d_222_12595)">
<path d="M2.40401e-05 274.987C2.40401e-05 274.987 108.736 244.987 180 244.987C251.264 244.987 288.736 274.987 360 274.987C431.264 274.987 468.736 244.987 540 244.987C611.264 244.987 648.736 274.987 720 274.987C791.264 274.987 828.736 244.987 900 244.987C971.264 244.987 1008.74 274.987 1080 274.987C1151.26 274.987 1188.74 244.987 1260 244.987C1331.26 244.987 1440 274.987 1440 274.987V474.987C1440 474.987 1331.26 444.987 1260 444.987C1224.37 444.987 1197.18 452.487 1170 459.987C1142.82 467.487 1115.63 474.987 1080 474.987C1044.37 474.987 1017.18 467.487 990 459.987C962.816 452.487 935.632 444.987 900 444.987C864.368 444.987 837.184 452.487 810 459.987C782.816 467.487 755.632 474.987 720 474.987C684.368 474.987 657.184 467.487 630 459.987C602.816 452.487 575.632 444.987 540 444.987C504.368 444.987 477.184 452.487 450 459.987C422.816 467.487 395.632 474.987 360 474.987C324.368 474.987 297.184 467.487 270 459.987C242.816 452.487 215.632 444.987 180 444.987C108.736 444.987 4.15247e-05 474.987 4.15247e-05 474.987L2.40401e-05 274.987Z" fill="#942807"/>
<path d="M6.55555e-06 74.9868C6.55555e-06 74.9868 108.736 44.9868 180 44.9867C251.264 44.9867 288.736 74.9867 360 74.9867C431.264 74.9867 468.736 44.9867 540 44.9867C611.264 44.9867 648.736 74.9867 720 74.9868C791.264 74.9868 828.736 44.9868 900 44.9868C971.264 44.9868 1008.74 74.9868 1080 74.9868C1151.26 74.9868 1188.74 44.9868 1260 44.9868C1331.26 44.9868 1440 74.9868 1440 74.9868V274.987C1440 274.987 1331.26 244.987 1260 244.987C1188.74 244.987 1151.26 274.987 1080 274.987C1008.74 274.987 971.264 244.987 900 244.987C828.736 244.987 791.264 274.987 720 274.987C648.736 274.987 611.264 244.987 540 244.987C468.736 244.987 431.264 274.987 360 274.987C288.736 274.987 251.264 244.987 180 244.987C108.736 244.987 2.40401e-05 274.987 2.40401e-05 274.987L6.55555e-06 74.9868Z" fill="#BB340B"/>
<path fill-rule="evenodd" clip-rule="evenodd" d="M4.15247e-05 474.987C4.15247e-05 474.987 108.736 444.987 180 444.987C215.632 444.987 242.816 452.487 270 459.987C297.184 467.487 324.368 474.987 360 474.987C395.632 474.987 422.816 467.487 450 459.987C477.184 452.487 504.368 444.987 540 444.987C575.632 444.987 602.816 452.487 630 459.987C657.184 467.487 684.368 474.987 720 474.987C755.632 474.987 782.816 467.487 810 459.987C837.184 452.487 864.368 444.987 900 444.987C935.632 444.987 962.816 452.487 990 459.987C1017.18 467.487 1044.37 474.987 1080 474.987C1115.63 474.987 1142.82 467.487 1170 459.987C1197.18 452.487 1224.37 444.987 1260 444.987C1331.26 444.987 1440 474.987 1440 474.987V625.987V575.487C1440 575.487 1331.26 545.487 1260 545.487C1224.37 545.487 1197.18 552.987 1170 560.487C1142.82 567.987 1115.63 575.487 1080 575.487C1044.37 575.487 1017.18 567.987 990 560.487C962.816 552.987 935.632 545.487 900 545.487C864.368 545.487 837.184 552.987 810 560.487C782.816 567.987 755.632 575.487 720 575.487C684.368 575.487 657.184 567.987 630 560.487C602.816 552.987 575.632 545.487 540 545.487C504.368 545.487 477.184 552.987 450 560.487C422.816 567.987 395.632 575.487 360 575.487C324.368 575.487 297.184 567.987 270 560.487C242.816 552.987 215.632 545.487 180 545.487C108.736 545.487 5.03106e-05 575.487 5.03106e-05 575.487L4.15247e-05 474.987Z" fill="#6B1C04"/>
<path d="M5.03106e-05 575.487L5.47255e-05 625.987C5.47255e-05 625.987 108.736 595.987 180 595.987C215.632 595.987 242.816 603.487 270 610.987C297.184 618.487 324.368 625.987 360 625.987C395.632 625.987 422.816 618.487 450 610.987C477.184 603.487 504.368 595.987 540 595.987C575.632 595.987 602.816 603.487 630 610.987C657.184 618.487 684.368 625.987 720 625.987C755.632 625.987 782.816 618.487 810 610.987C837.184 603.487 864.368 595.987 900 595.987C935.632 595.987 962.816 603.487 990 610.987C1017.18 618.487 1044.37 625.987 1080 625.987C1115.63 625.987 1142.82 618.487 1170 610.987C1197.18 603.487 1224.37 595.987 1260 595.987C1331.26 595.987 1440 625.987 1440 625.987V575.487C1440 575.487 1331.26 545.487 1260 545.487C1224.37 545.487 1197.18 552.987 1170 560.487C1142.82 567.987 1115.63 575.487 1080 575.487C1044.37 575.487 1017.18 567.987 990 560.487C962.816 552.987 935.632 545.487 900 545.487C864.368 545.487 837.184 552.987 810 560.487C782.816 567.987 755.632 575.487 720 575.487C684.368 575.487 657.184 567.987 630 560.487C602.816 552.987 575.632 545.487 540 545.487C504.368 545.487 477.184 552.987 450 560.487C422.816 567.987 395.632 575.487 360 575.487C324.368 575.487 297.184 567.987 270 560.487C242.816 552.987 215.632 545.487 180 545.487C108.736 545.487 5.03106e-05 575.487 5.03106e-05 575.487Z" fill="#4F1503"/>
<path d="M720 625.987H1080C1044.37 625.987 1017.18 618.487 990 610.987C962.816 603.487 935.632 595.987 900 595.987C864.368 595.987 837.184 603.487 810 610.987C782.816 618.487 755.632 625.987 720 625.987Z" fill="#301916"/>
<path d="M1080 625.987H1440C1440 625.987 1331.26 595.987 1260 595.987C1224.37 595.987 1197.18 603.487 1170 610.987C1142.82 618.487 1115.63 625.987 1080 625.987Z" fill="#301916"/>
<path d="M360 625.987H720C684.368 625.987 657.184 618.487 630 610.987C602.816 603.487 575.632 595.987 540 595.987C504.368 595.987 477.184 603.487 450 610.987C422.816 618.487 395.632 625.987 360 625.987Z" fill="#301916"/>
<path d="M5.47255e-05 625.987H360C324.368 625.987 297.184 618.487 270 610.987C242.816 603.487 215.632 595.987 180 595.987C108.736 595.987 5.47255e-05 625.987 5.47255e-05 625.987Z" fill="#301916"/>
<path d="M1260 44.9868C1331.26 44.9868 1440 74.9868 1440 74.9868V0L0 3.81849e-06L6.55555e-06 74.9868C6.55555e-06 74.9868 108.736 44.9868 180 44.9867C251.264 44.9867 288.736 74.9867 360 74.9867C431.264 74.9867 468.736 44.9867 540 44.9867C611.264 44.9867 648.736 74.9867 720 74.9868C791.264 74.9868 828.736 44.9868 900 44.9868C971.264 44.9868 1008.74 74.9868 1080 74.9868C1151.26 74.9868 1188.74 44.9868 1260 44.9868Z" fill="#F74009"/>
<path d="M1440 0L0 3.81849e-06L0.000164206 18.2935C23.0358 29.0381 39.0002 52.4044 39.0002 79.4995C39.0002 105.733 60.2666 126.999 86.5002 126.999C112.734 126.999 134 105.733 134 79.4995C134 42.2202 164.221 11.9995 201.5 11.9995C238.779 11.9995 269 42.2202 269 79.4995C269 105.733 290.267 126.999 316.5 126.999C342.734 126.999 364 105.733 364 79.4995C364 42.2202 394.221 11.9995 431.5 11.9995C468.779 11.9995 499 42.2202 499 79.4995C499 105.733 520.267 126.999 546.5 126.999C572.734 126.999 594 105.733 594 79.4995C594 42.2202 624.221 11.9995 661.5 11.9995C698.779 11.9995 729 42.2202 729 79.4995C729 105.733 750.267 126.999 776.5 126.999C802.734 126.999 824 105.733 824 79.4995C824 42.2202 854.221 11.9995 891.5 11.9995C928.779 11.9995 959 42.2202 959 79.4995C959 105.733 980.267 126.999 1006.5 126.999C1032.73 126.999 1054 105.733 1054 79.4995C1054 42.2202 1084.22 11.9995 1121.5 11.9995C1158.78 11.9995 1189 42.2202 1189 79.4995C1189 79.6662 1189 79.8329 1189 79.9995L1189 79.9998C1189 106.233 1210.27 127.5 1236.5 127.5C1262.73 127.5 1284 106.233 1284 79.9998L1284 79.9995L1284 79.9382L1284 79.7485L1284 79.4995C1284 42.2202 1314.22 11.9995 1351.5 11.9995C1351.67 11.9995 1351.83 12.0001 1352 12.0013C1389.05 12.2701 1419 42.387 1419 79.4995C1419 79.6663 1419 79.8329 1419 79.9995H1419C1419 80.1659 1419 80.3326 1419 80.4995C1419 96.9204 1427.33 111.395 1440 119.926L1440 0Z" fill="#18161B"/>
</g>
<defs>
<filter id="filter0_d_222_12595" x="-8" y="-4" width="1456" height="641.987" filterUnits="userSpaceOnUse" color-interpolation-filters="sRGB">
<feFlood flood-opacity="0" result="BackgroundImageFix"/>
<feColorMatrix in="SourceAlpha" type="matrix" values="0 0 0 0 0 0 0 0 0 0 0 0 0 0 0 0 0 0 127 0" result="hardAlpha"/>
<feOffset dy="4"/>
<feGaussianBlur stdDeviation="4"/>
<feComposite in2="hardAlpha" operator="out"/>
<feColorMatrix type="matrix" values="0 0 0 0 0 0 0 0 0 0 0 0 0 0 0 0 0 0 0.25 0"/>
<feBlend mode="normal" in2="BackgroundImageFix" result="effect1_dropShadow_222_12595"/>
<feBlend mode="normal" in="SourceGraphic" in2="effect1_dropShadow_222_12595" result="shape"/>
</filter>
</defs>
</svg>
