<svg width="1440" height="1606" viewBox="0 0 1440 1606" fill="none" xmlns="http://www.w3.org/2000/svg">
<path d="M1262 1556H1275.03H1440L1440 1606H1262V1556Z" fill="#2B2A2C"/>
<path d="M0 1556H165H178V1606H0V1556Z" fill="#2B2A2C"/>
<path d="M0 179.843C0 179.843 135 0 720 0C1305 0 1440 179.843 1440 179.843V477.809C1440 477.809 1305 87.0579 720 87.0579C135 87.0579 0 477.809 0 477.809V179.843Z" fill="#291919"/>
<path d="M1275 803H1275.42H1440V477.809C1440 477.809 1305 87.0579 720 87.0579C135 87.0579 0 477.809 0 477.809V803H165C165 803 164.96 801.972 164.922 800C164.034 753.819 164.416 190 712.511 190C1284.01 190 1275 803 1275 803Z" fill="#1B1A1E"/>
<path d="M1440 0H720C1305 0 1440 179.843 1440 179.843V0Z" fill="#301916"/>
<path d="M720 0H0V179.843C0 179.843 135 0 720 0Z" fill="#301916"/>
<path d="M165 800H164.922C164.96 801.972 165 803 165 803H0V1556H165V800Z" fill="#1B1A1E"/>
<path d="M1440 1556L1440 803H1275.42L1275.03 1556H1440Z" fill="#1B1A1E"/>
</svg>
