<svg width="1440" height="762" viewBox="0 0 1440 762" fill="none" xmlns="http://www.w3.org/2000/svg">
<g filter="url(#filter0_d_232_12637)">
<path d="M1440 762L6.99382e-05 762L8.8756e-05 546.75C8.8756e-05 546.75 108.736 579.038 180 579.038C251.264 579.038 288.736 546.75 360 546.75C431.264 546.75 468.736 579.038 540 579.038C611.264 579.038 648.736 546.75 720 546.75C791.264 546.75 828.736 579.038 900 579.038C971.264 579.038 1008.74 546.75 1080 546.75C1151.26 546.75 1188.74 579.038 1260 579.038C1331.26 579.038 1440 546.75 1440 546.75V762Z" fill="#F74009"/>
<path d="M1440 331.5C1440 331.5 1331.26 363.788 1260 363.788C1188.74 363.788 1151.26 331.5 1080 331.5C1008.74 331.5 971.264 363.788 900 363.788C828.736 363.788 791.264 331.5 720 331.5C648.736 331.5 611.264 363.788 540 363.788C468.736 363.788 431.264 331.5 360 331.5C288.736 331.5 251.264 363.788 180 363.788C108.736 363.788 7.26046e-05 331.5 7.26046e-05 331.5L9.14224e-05 116.25C9.14224e-05 116.25 108.736 148.538 180 148.538C251.264 148.538 288.736 116.25 360 116.25C431.264 116.25 468.736 148.538 540 148.538C611.264 148.538 648.736 116.25 720 116.25C791.264 116.25 828.736 148.538 900 148.538C971.264 148.538 1008.74 116.25 1080 116.25C1151.26 116.25 1188.74 148.538 1260 148.538C1331.26 148.538 1440 116.25 1440 116.25V331.5Z" fill="#942807"/>
<path d="M1440 546.75C1440 546.75 1331.26 579.038 1260 579.038C1188.74 579.038 1151.26 546.75 1080 546.75C1008.74 546.75 971.264 579.038 900 579.038C828.736 579.038 791.264 546.75 720 546.75C648.736 546.75 611.264 579.038 540 579.038C468.736 579.038 431.264 546.75 360 546.75C288.736 546.75 251.264 579.038 180 579.038C108.736 579.038 8.8756e-05 546.75 8.8756e-05 546.75L7.26046e-05 331.5C7.26046e-05 331.5 108.736 363.788 180 363.788C251.264 363.788 288.736 331.5 360 331.5C431.264 331.5 468.736 363.788 540 363.788C611.264 363.788 648.736 331.5 720 331.5C791.264 331.5 828.736 363.788 900 363.788C971.264 363.788 1008.74 331.5 1080 331.5C1151.26 331.5 1188.74 363.788 1260 363.788C1331.26 363.788 1440 331.5 1440 331.5V546.75Z" fill="#BB340B"/>
<path d="M1440 116.25C1440 116.25 1331.26 148.538 1260 148.538C1188.74 148.538 1151.26 116.25 1080 116.25C1008.74 116.25 971.264 148.538 900 148.538C828.736 148.538 791.264 116.25 720 116.25C648.736 116.25 611.264 148.538 540 148.538C468.736 148.538 431.264 116.25 360 116.25C288.736 116.25 251.264 148.538 180 148.538C108.736 148.538 9.14224e-05 116.25 9.14224e-05 116.25V1.49978L1440 1.49991V116.25Z" fill="#6B1C04"/>
<path d="M1440 762.5L0 762.5L5.04273e-05 744.206C23.0357 733.462 39 710.095 39 683C39 656.767 60.2665 635.5 86.5001 635.5C112.734 635.5 134 656.767 134 683C134 720.28 164.221 750.5 201.5 750.5C238.779 750.5 269 720.28 269 683C269 656.767 290.267 635.5 316.5 635.5C342.734 635.5 364 656.767 364 683C364 720.28 394.221 750.5 431.5 750.5C468.779 750.5 499 720.28 499 683C499 656.767 520.267 635.5 546.5 635.5C572.734 635.5 594 656.767 594 683C594 720.28 624.221 750.5 661.5 750.5C698.779 750.5 729 720.28 729 683C729 656.767 750.267 635.5 776.5 635.5C802.734 635.5 824 656.767 824 683C824 720.28 854.221 750.5 891.5 750.5C928.779 750.5 959 720.28 959 683C959 656.767 980.267 635.5 1006.5 635.5C1032.73 635.5 1054 656.767 1054 683C1054 720.28 1084.22 750.5 1121.5 750.5C1158.78 750.5 1189 720.28 1189 683C1189 682.834 1189 682.667 1189 682.5L1189 682.5C1189 656.266 1210.27 635 1236.5 635C1262.73 635 1284 656.266 1284 682.5L1284 682.5L1284 682.562L1284 682.751L1284 683C1284 720.28 1314.22 750.5 1351.5 750.5C1351.67 750.5 1351.83 750.5 1352 750.498C1389.05 750.23 1419 720.113 1419 683C1419 682.833 1419 682.667 1419 682.5H1419C1419 682.334 1419 682.167 1419 682C1419 665.579 1427.33 651.105 1440 642.574V762.5Z" fill="#18161B"/>
<path d="M1440 0L0 0.00012207L5.04273e-05 18.2936C23.0357 29.0382 39 52.4045 39 79.4996C39 105.733 60.2665 127 86.5001 127C112.734 127 134 105.733 134 79.4996C134 42.2204 164.221 11.9996 201.5 11.9996C238.779 11.9996 269 42.2204 269 79.4996C269 105.733 290.267 127 316.5 127C342.734 127 364 105.733 364 79.4996C364 42.2204 394.221 11.9996 431.5 11.9996C468.779 11.9996 499 42.2204 499 79.4996C499 105.733 520.267 127 546.5 127C572.734 127 594 105.733 594 79.4996C594 42.2204 624.221 11.9996 661.5 11.9996C698.779 11.9996 729 42.2204 729 79.4996C729 105.733 750.267 127 776.5 127C802.734 127 824 105.733 824 79.4996C824 42.2204 854.221 11.9996 891.5 11.9996C928.779 11.9996 959 42.2204 959 79.4996C959 105.733 980.267 127 1006.5 127C1032.73 127 1054 105.733 1054 79.4996C1054 42.2204 1084.22 11.9996 1121.5 11.9996C1158.78 11.9996 1189 42.2204 1189 79.4996C1189 79.6664 1189 79.8331 1189 79.9996L1189 79.9999C1189 106.233 1210.27 127.5 1236.5 127.5C1262.73 127.5 1284 106.233 1284 79.9999L1284 79.9996L1284 79.9383L1284 79.7487L1284 79.4996C1284 42.2204 1314.22 11.9996 1351.5 11.9996C1351.67 11.9996 1351.83 12.0002 1352 12.0014C1389.05 12.2702 1419 42.3872 1419 79.4996C1419 79.6664 1419 79.833 1419 79.9996H1419C1419 80.166 1419 80.3327 1419 80.4996C1419 96.9205 1427.33 111.395 1440 119.926V0Z" fill="#18161B"/>
</g>
<defs>
<filter id="filter0_d_232_12637" x="-8" y="-4" width="1456" height="778.5" filterUnits="userSpaceOnUse" color-interpolation-filters="sRGB">
<feFlood flood-opacity="0" result="BackgroundImageFix"/>
<feColorMatrix in="SourceAlpha" type="matrix" values="0 0 0 0 0 0 0 0 0 0 0 0 0 0 0 0 0 0 127 0" result="hardAlpha"/>
<feOffset dy="4"/>
<feGaussianBlur stdDeviation="4"/>
<feComposite in2="hardAlpha" operator="out"/>
<feColorMatrix type="matrix" values="0 0 0 0 0 0 0 0 0 0 0 0 0 0 0 0 0 0 0.25 0"/>
<feBlend mode="normal" in2="BackgroundImageFix" result="effect1_dropShadow_232_12637"/>
<feBlend mode="normal" in="SourceGraphic" in2="effect1_dropShadow_232_12637" result="shape"/>
</filter>
</defs>
</svg>
