<svg width="1440" height="1094" viewBox="0 0 1440 1094" fill="none" xmlns="http://www.w3.org/2000/svg">
<g filter="url(#filter0_d_238_12684)">
<path d="M-0.999914 0L1439 0.000261085L1439 218.445C1439 218.445 1330.26 185.678 1259 185.678C1187.74 185.678 1150.26 218.445 1079 218.445C1007.74 218.445 970.264 185.678 899 185.678C827.736 185.678 790.264 218.445 719 218.445C647.736 218.445 610.264 185.678 539 185.678C467.736 185.678 430.264 218.445 359 218.445C287.736 218.445 250.264 185.678 179 185.678C107.736 185.678 -0.999935 218.445 -0.999935 218.445L-0.999914 0Z" fill="#F74009"/>
<path d="M-0.999956 436.889C-0.999956 436.889 107.736 404.123 179 404.123C250.264 404.123 287.736 436.89 359 436.89C430.264 436.89 467.736 404.123 539 404.123C610.264 404.123 647.736 436.89 719 436.89C790.264 436.89 827.736 404.123 899 404.123C970.264 404.123 1007.74 436.89 1079 436.89C1150.26 436.89 1187.74 404.123 1259 404.123C1330.26 404.123 1439 436.89 1439 436.89V655.334C1439 655.334 1330.26 622.568 1259 622.568C1187.74 622.568 1150.26 655.334 1079 655.334C1007.74 655.334 970.264 622.568 899 622.568C827.736 622.568 790.264 655.334 719 655.334C647.736 655.334 610.264 622.567 539 622.567C467.736 622.567 430.264 655.334 359 655.334C287.736 655.334 250.264 622.567 179 622.567C107.736 622.567 -0.999979 655.334 -0.999979 655.334L-0.999956 436.889Z" fill="#942807"/>
<path d="M-0.999935 218.445C-0.999935 218.445 107.736 185.678 179 185.678C250.264 185.678 287.736 218.445 359 218.445C430.264 218.445 467.736 185.678 539 185.678C610.264 185.678 647.736 218.445 719 218.445C790.264 218.445 827.736 185.678 899 185.678C970.264 185.678 1007.74 218.445 1079 218.445C1150.26 218.445 1187.74 185.678 1259 185.678C1330.26 185.678 1439 218.445 1439 218.445V436.89C1439 436.89 1330.26 404.123 1259 404.123C1187.74 404.123 1150.26 436.89 1079 436.89C1007.74 436.89 970.264 404.123 899 404.123C827.736 404.123 790.264 436.89 719 436.89C647.736 436.89 610.264 404.123 539 404.123C467.736 404.123 430.264 436.89 359 436.89C287.736 436.89 250.264 404.123 179 404.123C107.736 404.123 -0.999956 436.889 -0.999956 436.889L-0.999935 218.445Z" fill="#BB340B"/>
<path d="M-0.999979 655.334C-0.999979 655.334 107.736 622.567 179 622.567C250.264 622.567 287.736 655.334 359 655.334C430.264 655.334 467.736 622.567 539 622.567C610.264 622.567 647.736 655.334 719 655.334C790.264 655.334 827.736 622.568 899 622.568C970.264 622.568 1007.74 655.334 1079 655.334C1150.26 655.334 1187.74 622.568 1259 622.568C1330.26 622.568 1439 655.334 1439 655.334V1094L-1 1094L-0.999979 655.334Z" fill="#6B1C04"/>
<path d="M1439 0.000261085L-0.999914 0L-0.999949 18.5654C22.0357 29.4695 38 53.1826 38 80.6798C38 107.303 59.2665 128.885 85.5 128.885C111.734 128.885 133 107.303 133 80.6798C133 42.8473 163.221 12.178 200.5 12.178C237.779 12.178 268 42.8473 268 80.6798C268 107.303 289.267 128.885 315.5 128.885C341.734 128.885 363 107.303 363 80.6798C363 42.8473 393.221 12.178 430.5 12.178C467.779 12.178 498 42.8473 498 80.6798C498 107.303 519.267 128.885 545.5 128.885C571.734 128.885 593 107.303 593 80.6798C593 42.8473 623.221 12.178 660.5 12.178C697.779 12.178 728 42.8473 728 80.6798C728 107.303 749.266 128.885 775.5 128.885C801.734 128.885 823 107.303 823 80.6798C823 42.8473 853.221 12.178 890.5 12.178C927.779 12.178 958 42.8473 958 80.6798C958 107.303 979.266 128.885 1005.5 128.885C1031.73 128.885 1053 107.303 1053 80.6798C1053 42.8473 1083.22 12.178 1120.5 12.178C1157.78 12.178 1188 42.8473 1188 80.6798C1188 80.849 1188 81.0182 1188 81.1872L1188 81.1875C1188 107.81 1209.27 129.392 1235.5 129.392C1261.73 129.392 1283 107.81 1283 81.1875L1283 81.1872L1283 81.125L1283 80.9326L1283 80.6798C1283 42.8473 1313.22 12.178 1350.5 12.178C1350.67 12.178 1350.83 12.1786 1351 12.1798C1388.05 12.4526 1418 43.0165 1418 80.6798C1418 80.8491 1418 81.0182 1418 81.1872H1418C1418 81.3561 1418 81.5253 1418 81.6946C1418 98.3592 1426.33 113.049 1439 121.706L1439 0.000261085Z" fill="#18161B"/>
</g>
<defs>
<filter id="filter0_d_238_12684" x="-9" y="-4" width="1456" height="1110" filterUnits="userSpaceOnUse" color-interpolation-filters="sRGB">
<feFlood flood-opacity="0" result="BackgroundImageFix"/>
<feColorMatrix in="SourceAlpha" type="matrix" values="0 0 0 0 0 0 0 0 0 0 0 0 0 0 0 0 0 0 127 0" result="hardAlpha"/>
<feOffset dy="4"/>
<feGaussianBlur stdDeviation="4"/>
<feComposite in2="hardAlpha" operator="out"/>
<feColorMatrix type="matrix" values="0 0 0 0 0 0 0 0 0 0 0 0 0 0 0 0 0 0 0.25 0"/>
<feBlend mode="normal" in2="BackgroundImageFix" result="effect1_dropShadow_238_12684"/>
<feBlend mode="normal" in="SourceGraphic" in2="effect1_dropShadow_238_12684" result="shape"/>
</filter>
</defs>
</svg>
