<svg width="665" height="298" viewBox="0 0 665 298" fill="none" xmlns="http://www.w3.org/2000/svg">
<path d="M647.129 228.406C647.129 237.609 648.465 244.438 651.137 248.891C654.106 253.048 658.708 256.313 664.943 258.689L652.919 296.542C639.558 295.355 628.573 292.089 619.964 286.745C611.651 281.401 605.268 273.236 600.814 262.251C592.798 274.127 582.704 283.034 570.531 288.971C558.656 294.612 545.296 297.433 530.451 297.433C506.997 297.433 488.441 290.753 474.784 277.393C461.127 264.033 454.299 246.516 454.299 224.843C454.299 199.311 463.502 179.864 481.91 166.504C500.614 152.847 527.185 146.019 561.625 146.019H591.017V132.659C591.017 117.517 587.454 106.978 580.329 101.04C573.5 94.8051 562.367 91.6878 546.929 91.6878C529.709 91.6878 508.927 95.8442 484.582 104.157L471.222 65.413C500.614 54.1311 529.115 48.4902 556.726 48.4902C616.995 48.4902 647.129 75.5073 647.129 129.541V228.406ZM545.593 256.017C564.89 256.017 580.032 246.368 591.017 227.07V179.419H567.414C530.6 179.419 512.192 193.076 512.192 220.39C512.192 231.672 515.013 240.43 520.654 246.665C526.295 252.899 534.608 256.017 545.593 256.017Z" fill="white"/>
<path d="M366.608 132.646C363.984 130.023 359.73 130.023 357.107 132.646C355.806 133.947 355.151 135.647 355.139 137.351V137.443L355.138 152.439H299.637C295.927 152.439 292.919 155.447 292.919 159.158C292.919 162.868 295.927 165.876 299.637 165.876H355.138L355.139 180.891V180.947C355.146 182.657 355.802 184.364 357.107 185.669C359.73 188.293 363.984 188.293 366.608 185.669L388.368 163.908C390.992 161.285 390.992 157.031 388.368 154.407L366.608 132.646Z" fill="#F7F7EE"/>
<path d="M97.0832 48.4902C121.131 48.4902 141.468 58.2876 158.094 77.8823L161.211 55.1702H210.644V95.0899C215.125 86.2175 217.649 76.1881 217.649 65.5692C217.649 29.3563 188.293 0 152.08 0C121.655 0 96.0707 20.7216 88.669 48.8216C91.4185 48.6007 94.2232 48.4902 97.0832 48.4902Z" fill="#793A80"/>
<path fill-rule="evenodd" clip-rule="evenodd" d="M210.644 219.499V95.0899C200.063 116.039 178.573 130.538 153.641 131.12V223.507C146.515 233.898 139.093 241.617 131.374 246.664C123.952 251.712 115.045 254.235 104.654 254.235C90.4031 254.235 79.4182 248 71.699 235.531C63.9799 222.765 60.1203 201.834 60.1203 172.739C60.1203 145.128 64.2768 124.643 72.5897 111.282C78.0558 102.801 84.8383 97.0111 92.9371 93.9141C88.8181 85.3353 86.5107 75.7217 86.5107 65.5692C86.5107 59.7809 87.2608 54.1677 88.669 48.8216C72.2952 50.1373 57.8802 55.3709 45.4242 64.5223C30.8766 74.9134 19.5948 89.6095 11.5787 108.61C3.85958 127.315 0 148.839 0 173.184C0 211.186 8.01604 241.469 24.0481 264.033C40.0802 286.299 62.4954 297.433 91.2938 297.433C104.951 297.433 117.717 294.315 129.593 288.081C141.468 281.549 151.563 272.642 159.875 261.361C164.032 270.861 170.267 278.58 178.58 284.518C186.893 290.159 198.471 294.464 213.316 297.433L230.238 255.571C222.816 252.009 217.621 247.852 214.652 243.102C211.98 238.055 210.644 230.187 210.644 219.499Z" fill="white"/>
<path d="M153.641 116.181C146.812 107.868 139.835 101.634 132.71 97.4771C125.585 93.3206 117.42 91.2424 108.217 91.2424C102.688 91.2424 97.5948 92.133 92.9371 93.9141C103.51 115.935 126.02 131.138 152.08 131.138C152.602 131.138 153.122 131.132 153.641 131.12V116.181Z" fill="#793A80"/>
<path d="M158.094 77.8823C141.468 58.2876 121.131 48.4902 97.0832 48.4902C94.2232 48.4902 91.4185 48.6007 88.669 48.8216C87.2608 54.1677 86.5107 59.7809 86.5107 65.5692C86.5107 75.7217 88.8181 85.3353 92.9371 93.9141C97.5948 92.133 102.688 91.2424 108.217 91.2424C117.42 91.2424 125.585 93.3206 132.71 97.4771C139.835 101.634 146.812 107.868 153.641 116.181V131.12C178.573 130.538 200.063 116.039 210.644 95.0899V55.1702H161.211L158.094 77.8823Z" fill="#18161B"/>
</svg>
